<svg width="38" height="44" viewBox="0 0 38 44" fill="none" xmlns="http://www.w3.org/2000/svg">
<g clip-path="url(#clip0_49_8)">
<path d="M19.0085 11.9596C13.6138 11.9596 9.26251 16.3109 9.26251 21.7056C9.26251 27.1002 13.6138 31.4516 19.0085 31.4516C24.4031 31.4516 28.7545 27.1002 28.7545 21.7056C28.7545 16.3109 24.4031 11.9596 19.0085 11.9596ZM19.0085 28.0417C15.5223 28.0417 12.6723 25.2002 12.6723 21.7056C12.6723 18.2109 15.5138 15.3694 19.0085 15.3694C22.5031 15.3694 25.3446 18.2109 25.3446 21.7056C25.3446 25.2002 22.4946 28.0417 19.0085 28.0417ZM31.4263 11.5609C31.4263 12.8248 30.4085 13.8342 29.1531 13.8342C27.8893 13.8342 26.8799 12.8163 26.8799 11.5609C26.8799 10.3056 27.8978 9.28772 29.1531 9.28772C30.4085 9.28772 31.4263 10.3056 31.4263 11.5609ZM37.8813 13.8681C37.7371 10.823 37.0415 8.12567 34.8107 5.90335C32.5884 3.68103 29.8911 2.98549 26.846 2.83281C23.7076 2.65469 14.3009 2.65469 11.1625 2.83281C8.12591 2.97701 5.42858 3.67254 3.19778 5.89487C0.966978 8.11719 0.279925 10.8145 0.127246 13.8596C-0.0508789 16.998 -0.0508789 26.4047 0.127246 29.5431C0.271442 32.5882 0.966978 35.2855 3.19778 37.5078C5.42858 39.7301 8.11742 40.4257 11.1625 40.5783C14.3009 40.7565 23.7076 40.7565 26.846 40.5783C29.8911 40.4341 32.5884 39.7386 34.8107 37.5078C37.033 35.2855 37.7286 32.5882 37.8813 29.5431C38.0594 26.4047 38.0594 17.0065 37.8813 13.8681ZM33.8268 32.9105C33.1652 34.573 31.8844 35.8538 30.2134 36.5239C27.7112 37.5163 21.7737 37.2873 19.0085 37.2873C16.2433 37.2873 10.2973 37.5078 7.80358 36.5239C6.14108 35.8623 4.86028 34.5815 4.19019 32.9105C3.19778 30.4083 3.4268 24.4708 3.4268 21.7056C3.4268 18.9404 3.20626 12.9944 4.19019 10.5007C4.8518 8.83817 6.1326 7.55736 7.80358 6.88728C10.3058 5.89487 16.2433 6.12388 19.0085 6.12388C21.7737 6.12388 27.7197 5.90335 30.2134 6.88728C31.8759 7.54888 33.1567 8.82969 33.8268 10.5007C34.8192 13.0029 34.5902 18.9404 34.5902 21.7056C34.5902 24.4708 34.8192 30.4167 33.8268 32.9105Z" fill="black"/>
</g>
<defs>
<clipPath id="clip0_49_8">
<rect width="38" height="43.4286" fill="white"/>
</clipPath>
</defs>
</svg>
