<svg width="38" height="38" viewBox="0 0 38 38" fill="none" xmlns="http://www.w3.org/2000/svg">
<path d="M34.0939 11.2599C34.118 11.5975 34.118 11.9351 34.118 12.2727C34.118 22.5683 26.2817 34.4313 11.9594 34.4313C7.54693 34.4313 3.44798 33.1533 0 30.9351C0.626926 31.0074 1.22966 31.0315 1.8807 31.0315C5.5215 31.0315 8.87307 29.8019 11.5495 27.7042C8.12562 27.6318 5.25632 25.3894 4.26773 22.3031C4.75 22.3754 5.2322 22.4236 5.73859 22.4236C6.43781 22.4236 7.1371 22.3272 7.78807 22.1585C4.21956 21.435 1.54308 18.3006 1.54308 14.515V14.4186C2.57984 14.9973 3.78553 15.359 5.06335 15.4071C2.96563 14.0086 1.59132 11.6216 1.59132 8.92109C1.59132 7.47442 1.97704 6.14828 2.65221 4.99091C6.48598 9.71679 12.2487 12.803 18.7105 13.1406C18.59 12.562 18.5177 11.9592 18.5177 11.3564C18.5177 7.06451 21.9897 3.56836 26.3057 3.56836C28.5481 3.56836 30.5734 4.50871 31.9961 6.02775C33.7562 5.6902 35.444 5.03915 36.939 4.14704C36.3602 5.95546 35.1306 7.47449 33.5151 8.43889C35.0824 8.27019 36.6014 7.83609 37.9998 7.23336C36.9391 8.77644 35.6129 10.1507 34.0939 11.2599Z" fill="black"/>
</svg>
