<svg width="38" height="26" viewBox="0 0 38 26" fill="none" xmlns="http://www.w3.org/2000/svg">
<path d="M37.206 3.99798C36.7689 2.42429 35.4813 1.18489 33.8464 0.764289C30.8829 0 19 0 19 0C19 0 7.11713 0 4.15365 0.764289C2.51873 1.18496 1.23108 2.42429 0.794047 3.99798C0 6.85039 0 12.8017 0 12.8017C0 12.8017 0 18.753 0.794047 21.6054C1.23108 23.1791 2.51873 24.3668 4.15365 24.7874C7.11713 25.5517 19 25.5517 19 25.5517C19 25.5517 30.8829 25.5517 33.8464 24.7874C35.4813 24.3668 36.7689 23.1791 37.206 21.6054C38 18.753 38 12.8017 38 12.8017C38 12.8017 38 6.85039 37.206 3.99798ZM15.1136 18.205V7.39836L25.0454 12.8018L15.1136 18.205Z" fill="black"/>
</svg>
